<svg width="25" height="25" viewBox="0 0 25 25" fill="none" xmlns="http://www.w3.org/2000/svg">
<path d="M4.31787 11.4877L5.32654 13.6479L7.54921 12.6303L6.50482 10.4434L4.31787 11.4877Z" fill="#FCB100"/>
<path fill-rule="evenodd" clip-rule="evenodd" d="M4.90683 11.6937C5.9512 12.015 7.12055 11.2027 7.64719 10.5243C8.53437 9.39033 7.95479 8.69631 7.00892 7.92374L7.01355 7.91785C7.16534 7.72147 7.17427 7.3912 6.97785 7.23945C6.87331 7.15867 6.79154 7.15635 6.62749 7.15162C6.48338 7.14742 6.27566 7.14135 5.93335 7.07877L5.32636 6.60567C4.49621 5.96298 3.30009 6.11473 2.64847 6.93595L1.88973 7.91785C1.24704 8.748 1.39878 9.94412 2.22 10.5957L3.60358 11.1492L4.90683 11.6937ZM11.3963 14.7554L14.6009 9.20324C15.3061 7.98033 17.0824 7.98033 17.7965 9.20324L21.001 14.7554H11.3963Z" fill="#FFC83D"/>
<path d="M3.70174 7.54998C2.71092 8.82644 3.47858 9.42451 3.47858 9.42451C3.47858 9.42451 2.943 9.84404 4.50511 11.0669C5.3174 11.7007 4.65685 12.1738 4.43369 12.4595C4.06772 12.9325 3.20186 12.3702 3.69281 11.7453C3.69281 11.7453 3.05904 12.5309 0.854243 10.817C-0.752494 9.56733 0.211548 7.96059 1.26485 7.17508C2.03252 6.60379 1.71117 6.43419 2.37172 5.58619C2.59487 5.30055 3.14831 4.90779 3.791 5.40767C4.39799 5.88969 4.54081 6.4699 3.70174 7.54998V7.54998Z" fill="#F1A11E"/>
<path d="M3.4785 9.42578C3.21963 9.76498 3.27319 10.247 3.61239 10.5148C3.95159 10.7826 4.44254 10.7112 4.7014 10.3809" fill="#FDBB11"/>
<path d="M7.1978 8.48448C7.26439 8.50742 7.29982 8.5799 7.27697 8.64658C7.15593 8.99863 6.76123 9.19599 6.39867 9.06415C6.33248 9.04005 6.29834 8.96686 6.32241 8.90071C6.34647 8.83457 6.41963 8.80038 6.48581 8.82448C6.7124 8.90687 6.96041 8.7828 7.03576 8.56365C7.05865 8.49706 7.13121 8.46163 7.1978 8.48448V8.48448Z" fill="#990839"/>
<path d="M5.8887 7.64915C5.93333 7.59559 5.91548 7.4974 5.84407 7.44385C5.84407 7.44385 5.83514 7.44385 5.83514 7.43492C5.55842 7.22961 5.21922 7.34566 5.0407 7.56881C4.86217 7.79197 4.83539 8.15795 5.11211 8.37218C5.11211 8.37218 5.12103 8.37218 5.12103 8.38111C5.19244 8.43467 5.28171 8.42574 5.32634 8.37218L5.8887 7.64915Z" fill="white"/>
<path d="M5.95117 7.56188C5.92439 7.51725 5.88869 7.48155 5.83513 7.44584C5.63875 7.29409 5.37096 7.29409 5.25492 7.44584C5.12995 7.60652 5.19243 7.85645 5.39774 8.01713C5.44237 8.05283 5.487 8.07961 5.54056 8.09746L5.95117 7.56188Z" fill="#7D4533"/>
<path d="M5.8799 7.65983C5.86205 7.60627 5.82634 7.56164 5.78171 7.52593C5.66567 7.43667 5.51392 7.43667 5.45144 7.52593C5.38003 7.61519 5.41573 7.75802 5.53177 7.84728C5.57641 7.88298 5.62997 7.90976 5.68353 7.90976L5.8799 7.65983Z" fill="black"/>
<path d="M5.65489 7.52798C5.67911 7.49682 5.66721 7.4471 5.62831 7.41684C5.58941 7.38649 5.53823 7.38721 5.51402 7.41836C5.48979 7.44942 5.50169 7.49923 5.54059 7.52949C5.57949 7.55975 5.63067 7.55913 5.65489 7.52798V7.52798Z" fill="white"/>
<path d="M4.87685 6.85703C4.93069 6.90953 4.93179 6.99574 4.87928 7.04959C4.72423 7.20865 4.64672 7.38147 4.60792 7.51474C4.57885 7.61462 4.57189 7.69157 4.5703 7.71995C4.56697 7.79699 4.51693 7.86733 4.43366 7.86733C4.35845 7.86733 4.29749 7.80636 4.29749 7.73111C4.29778 7.65033 4.30861 7.56865 4.34643 7.43869C4.39466 7.27292 4.49122 7.05749 4.68429 6.85947C4.73678 6.80562 4.823 6.80453 4.87685 6.85703V6.85703Z" fill="#D37034"/>
<path d="M10.5573 14.8359C11.5476 14.8359 12.4202 14.332 12.9326 13.5666C13.3092 14.0255 13.8806 14.3182 14.5205 14.3182C14.7964 14.3182 15.0594 14.2638 15.2997 14.1652C15.6605 15.3292 16.7458 16.1748 18.0286 16.1748C19.6061 16.1748 20.885 14.896 20.885 13.3184C20.885 11.7409 19.6061 10.462 18.0286 10.462C17.3412 10.462 16.7104 10.7048 16.2176 11.1093C15.848 10.5677 15.2258 10.2121 14.5205 10.2121C13.987 10.2121 13.5011 10.4156 13.136 10.7492C12.6763 9.78743 11.6944 9.12305 10.5573 9.12305C8.9798 9.12305 7.70093 10.4019 7.70093 11.9795C7.70093 13.557 8.9798 14.8359 10.5573 14.8359V14.8359Z" fill="#26C9FC"/>
<path d="M18.9747 0C17.126 0 15.6273 1.49867 15.6273 3.34737V3.76133C14.7776 4.06667 14.1278 4.7949 13.933 5.695C13.8706 5.98064 14.0937 6.24843 14.3883 6.24843H18.3426C18.9496 6.24843 19.1728 5.98064 19.1103 5.695C18.9153 4.79371 18.2641 4.06473 17.4126 3.76012V3.34737C17.4126 2.48464 18.112 1.78526 18.9747 1.78526C19.8374 1.78526 20.5368 2.48464 20.5368 3.34737V12.4968H22.3221V3.34737C22.3221 1.49867 20.8234 0 18.9747 0Z" fill="#9B9B9B"/>
<path d="M7.20096 23.9225C6.95102 24.1724 6.53149 24.1724 6.28155 23.9225C6.02269 23.6725 6.02269 23.2619 6.28155 23.0031L7.18311 22.1015C7.44197 21.8516 7.85258 21.8516 8.10252 22.1015C8.35245 22.3604 8.35245 22.771 8.10252 23.0209L7.20096 23.9225Z" fill="#9B9B9B"/>
<path d="M18.6712 23.9225C18.9211 24.1724 19.3406 24.1724 19.5906 23.9225C19.8405 23.6725 19.8405 23.2619 19.5906 23.0031L18.689 22.1015C18.4391 21.8516 18.0195 21.8516 17.7696 22.1015C17.5197 22.3604 17.5197 22.771 17.7696 23.0209L18.6712 23.9225Z" fill="#9B9B9B"/>
<path d="M1.84505 13.7646C1.59511 12.9077 2.23781 12.0508 3.13044 12.0508H22.7684C23.661 12.0508 24.3037 12.9077 24.0537 13.7646L22.929 17.6208C22.0403 20.6676 19.2474 22.7624 16.0736 22.7624H9.8252C6.65137 22.7624 3.85842 20.6676 2.96976 17.6208L1.84505 13.7646Z" fill="#E1D8EC"/>
<path d="M0.898926 12.4961C0.898926 12.0031 1.29857 11.6035 1.79156 11.6035H24.1073C24.6003 11.6035 25 12.0031 25 12.4961C25 12.9891 24.6003 13.3888 24.1073 13.3888H1.79156C1.29857 13.3888 0.898926 12.9891 0.898926 12.4961Z" fill="#F3EEF8"/>
</svg>
