<svg width="25" height="25" viewBox="0 0 25 25" fill="none" xmlns="http://www.w3.org/2000/svg">
<path d="M2.01613 23.791H22.5806H22.9839H25V25.0007H0V23.791H2.01613Z" fill="#E3E3E3"/>
<path d="M4.64522 22.568C4.50783 22.3258 4.43559 22.0521 4.43555 21.7737C4.43555 20.8825 4.83877 18.5479 5.242 18.5479C5.64522 18.5479 7.66135 21.2858 7.66135 22.1769C7.66278 22.3081 7.64373 22.4387 7.6049 22.564C7.42345 23.1608 6.79442 23.3866 6.04845 23.3866C5.76311 23.3862 5.48296 23.3102 5.23648 23.1665C4.99001 23.0227 4.78601 22.8162 4.64522 22.568V22.568Z" fill="#E7544C"/>
<path d="M13.895 22.5801C13.7171 22.8868 13.4432 23.1263 13.1155 23.2616C12.7878 23.3969 12.4246 23.4205 12.0822 23.3287C11.7398 23.2369 11.4371 23.0348 11.2211 22.7537C11.005 22.4726 10.8876 22.1282 10.887 21.7737C10.887 20.8825 12.0966 18.5479 12.4999 18.5479C12.9031 18.5479 14.1128 20.8825 14.1128 21.7737C14.1125 22.057 14.0374 22.3352 13.895 22.5801V22.5801Z" fill="#E7544C"/>
<path d="M20.3548 22.568C20.214 22.8162 20.01 23.0227 19.7636 23.1665C19.5171 23.3102 19.2369 23.3862 18.9516 23.3866C18.2056 23.3866 17.5766 23.1608 17.3951 22.564C17.3563 22.4387 17.3373 22.3081 17.3387 22.1769C17.3387 21.2858 19.3548 18.5479 19.7581 18.5479C20.1613 18.5479 20.5645 20.8825 20.5645 21.7737C20.5645 22.0521 20.4922 22.3258 20.3548 22.568V22.568Z" fill="#E7544C"/>
<path d="M3.22585 12.0977V13.7106H2.51617C2.36613 13.7105 2.2191 13.6685 2.09159 13.5895C1.96408 13.5104 1.86116 13.3973 1.79439 13.263L1.20972 12.0977H3.22585Z" fill="#BFBFBF"/>
<path d="M23.7905 12.0977L23.2059 13.263C23.1391 13.3973 23.0362 13.5104 22.9087 13.5895C22.7812 13.6685 22.6341 13.7105 22.4841 13.7106H21.7744V12.0977H23.7905Z" fill="#BFBFBF"/>
<path d="M3.22581 10.4844V12.0973H0.403226C0.296284 12.0973 0.193722 12.0548 0.118102 11.9792C0.0424826 11.9036 0 11.801 0 11.6941V10.8876C0 10.7807 0.0424826 10.6781 0.118102 10.6025C0.193722 10.5269 0.296284 10.4844 0.403226 10.4844H3.22581Z" fill="#21ABAB"/>
<path d="M25.0002 10.8876V11.6941C25.0002 11.801 24.9577 11.9036 24.8821 11.9792C24.8065 12.0548 24.7039 12.0973 24.597 12.0973H21.7744V10.4844H24.597C24.7039 10.4844 24.8065 10.5269 24.8821 10.6025C24.9577 10.6781 25.0002 10.7807 25.0002 10.8876Z" fill="#21ABAB"/>
<path d="M3.22559 8.87109H21.774V10.484H3.22559V8.87109Z" fill="#21ABAB"/>
<path d="M14.1128 5.64513V6.45158H10.887V5.64513C10.887 5.21736 11.0569 4.80711 11.3594 4.50463C11.6618 4.20216 12.0721 4.03223 12.4999 4.03223C12.9276 4.03223 13.3379 4.20216 13.6404 4.50463C13.9428 4.80711 14.1128 5.21736 14.1128 5.64513V5.64513Z" fill="#21ABAB"/>
<path d="M21.774 8.8715H3.22559C3.22567 8.53445 3.34587 8.20847 3.56461 7.95204C3.78335 7.69561 4.08631 7.52553 4.41913 7.47231L10.8869 6.45215H14.1127L20.5804 7.47231C20.9132 7.52553 21.2162 7.69561 21.4349 7.95204C21.6537 8.20847 21.7739 8.53445 21.774 8.8715V8.8715Z" fill="#E3E3E3"/>
<path d="M21.774 20.9682C21.7739 21.3624 21.6294 21.7429 21.3679 22.0378C21.1064 22.3328 20.7459 22.5218 20.3546 22.5691C20.492 22.3268 20.5643 22.0532 20.5643 21.7747C20.5643 20.8836 20.1611 18.5489 19.7578 18.5489C19.3546 18.5489 17.3385 21.2868 17.3385 22.1779C17.3371 22.3091 17.3561 22.4397 17.3949 22.565L17.3385 22.5811H13.8949C14.0373 22.3362 14.1124 22.058 14.1127 21.7747C14.1127 20.8836 12.903 18.5489 12.4998 18.5489C12.0966 18.5489 10.8869 20.8836 10.8869 21.7747C10.8872 22.058 10.9623 22.3362 11.1046 22.5811H7.66107L7.60462 22.565C7.64345 22.4397 7.66249 22.3091 7.66107 22.1779C7.66107 21.2868 5.64494 18.5489 5.24171 18.5489C4.83849 18.5489 4.43526 20.8836 4.43526 21.7747C4.43531 22.0532 4.50755 22.3268 4.64494 22.5691C4.25361 22.5218 3.89316 22.3328 3.63165 22.0378C3.37014 21.7429 3.22569 21.3624 3.22559 20.9682V10.4844H21.774V20.9682Z" fill="#E3E3E3"/>
<path d="M20.5804 7.47187L20.1466 7.40332C20.1126 7.58872 20.0148 7.75637 19.8702 7.87718C19.7255 7.99798 19.5431 8.0643 19.3546 8.06461H5.64494C5.45647 8.0643 5.27406 7.99798 5.12939 7.87718C4.98472 7.75637 4.88693 7.58872 4.85301 7.40332L4.41913 7.47187C4.08631 7.52509 3.78335 7.69517 3.56461 7.9516C3.34587 8.20803 3.22567 8.53401 3.22559 8.87106H21.774C21.7739 8.53401 21.6537 8.20803 21.4349 7.9516C21.2162 7.69517 20.9132 7.52509 20.5804 7.47187V7.47187Z" fill="#BFBFBF"/>
<path d="M12.9031 5.64513C12.7064 5.6433 12.5171 5.56963 12.3709 5.43798C12.2247 5.30633 12.1317 5.12579 12.1094 4.93033C12.087 4.73488 12.1369 4.538 12.2496 4.37675C12.3623 4.2155 12.53 4.101 12.7212 4.05481C12.6481 4.04198 12.5741 4.03443 12.4999 4.03223C12.0721 4.03223 11.6618 4.20216 11.3594 4.50463C11.0569 4.80711 10.887 5.21736 10.887 5.64513V6.45158H14.1128V5.64513H12.9031Z" fill="#13969D"/>
<path d="M24.1938 11.6941H23.3873C23.1734 11.6941 22.9683 11.6091 22.8171 11.4578C22.6658 11.3066 22.5809 11.1015 22.5809 10.8876V10.4844H21.7744V12.0973H24.597C24.7039 12.0973 24.8065 12.0548 24.8821 11.9792C24.9577 11.9036 25.0002 11.801 25.0002 11.6941V10.8876C25.0002 11.1015 24.9153 11.3066 24.764 11.4578C24.6128 11.6091 24.4077 11.6941 24.1938 11.6941Z" fill="#13969D"/>
<path d="M22.9841 12.5009H23.5889L23.7905 12.0977H21.7744V13.7106H22.1776V13.3073C22.1776 13.0934 22.2626 12.8883 22.4138 12.7371C22.5651 12.5858 22.7702 12.5009 22.9841 12.5009Z" fill="#A3A3A3"/>
<path d="M0.806452 11.6941H1.6129C1.82679 11.6941 2.03191 11.6091 2.18315 11.4578C2.33439 11.3066 2.41935 11.1015 2.41935 10.8876V10.4844H3.22581V12.0973H0.403226C0.296284 12.0973 0.193722 12.0548 0.118102 11.9792C0.0424826 11.9036 0 11.801 0 11.6941V10.8876C0 11.1015 0.0849652 11.3066 0.236204 11.4578C0.387443 11.6091 0.592567 11.6941 0.806452 11.6941Z" fill="#13969D"/>
<path d="M2.01617 12.5009H1.41133L1.20972 12.0977H3.22585V13.7106H2.82262V13.3073C2.82262 13.0934 2.73765 12.8883 2.58642 12.7371C2.43518 12.5858 2.23005 12.5009 2.01617 12.5009Z" fill="#A3A3A3"/>
<path d="M1.20968 23.791C1.20968 24.0049 1.29464 24.21 1.44588 24.3613C1.59712 24.5125 1.80224 24.5975 2.01613 24.5975H22.9839C23.1978 24.5975 23.4029 24.5125 23.5541 24.3613C23.7054 24.21 23.7903 24.0049 23.7903 23.791H25V25.0007H0V23.791H1.20968Z" fill="#A3A3A3"/>
<path d="M13.5483 22.8494C13.4292 23.0158 13.2722 23.1513 13.0902 23.2448C12.9082 23.3383 12.7066 23.3871 12.502 23.3871C12.2974 23.3871 12.0957 23.3383 11.9138 23.2448C11.7318 23.1513 11.5747 23.0158 11.4556 22.8494C11.3493 22.69 11.2919 22.5031 11.2903 22.3115C11.2903 21.7176 12.1975 20.1611 12.5 20.1611C12.8024 20.1611 13.7096 21.7176 13.7096 22.3115C13.7092 22.5027 13.6532 22.6896 13.5483 22.8494Z" fill="#C74841"/>
<path d="M13.1976 22.9849C13.1087 23.1382 12.9717 23.258 12.8079 23.3256C12.644 23.3933 12.4624 23.4051 12.2912 23.3592C12.12 23.3133 11.9687 23.2122 11.8607 23.0717C11.7526 22.9311 11.6939 22.7589 11.6936 22.5817C11.6936 22.1381 12.2984 20.9688 12.5001 20.9688C12.7017 20.9688 13.3065 22.1381 13.3065 22.5817C13.3063 22.7233 13.2687 22.8624 13.1976 22.9849V22.9849Z" fill="#21ABAB"/>
<path d="M20.0039 22.8414C19.8877 23.0126 19.7306 23.1522 19.5468 23.2475C19.3631 23.3427 19.1584 23.3907 18.9515 23.3869C18.3922 23.3869 17.92 23.2365 17.7821 22.8386C17.7539 22.7555 17.7403 22.6682 17.7418 22.5805C17.7418 21.9865 19.2539 20.1611 19.5563 20.1611C19.8588 20.1611 20.1612 21.7176 20.1612 22.3115C20.1606 22.4996 20.106 22.6835 20.0039 22.8414V22.8414Z" fill="#C74841"/>
<path d="M19.6531 22.9788C19.5828 23.103 19.4809 23.2063 19.3576 23.2782C19.2343 23.3502 19.0942 23.3881 18.9515 23.3881C18.5785 23.3881 18.266 23.2752 18.1733 22.9768C18.1539 22.9142 18.1443 22.8489 18.1451 22.7833C18.1451 22.3397 19.1531 20.9688 19.3547 20.9688C19.5563 20.9688 19.758 22.1381 19.758 22.5817C19.7579 22.7209 19.7218 22.8577 19.6531 22.9788Z" fill="#21ABAB"/>
<path d="M4.99588 22.8414C5.11206 23.0127 5.26915 23.1523 5.45293 23.2476C5.6367 23.3428 5.84134 23.3907 6.0483 23.3869C6.60757 23.3869 7.07935 23.2365 7.21564 22.8386C7.24454 22.7556 7.25886 22.6683 7.25798 22.5805C7.25798 21.9865 5.74588 20.1611 5.44346 20.1611C5.14104 20.1611 4.83862 21.7176 4.83862 22.3115C4.83923 22.4996 4.89381 22.6835 4.99588 22.8414V22.8414Z" fill="#C74841"/>
<path d="M5.34678 22.9788C5.41706 23.103 5.51904 23.2063 5.6423 23.2782C5.76556 23.3502 5.90569 23.3881 6.04839 23.3881C6.42138 23.3881 6.73388 23.2752 6.82662 22.9768C6.84603 22.9142 6.85555 22.8489 6.85485 22.7833C6.85485 22.3397 5.84678 20.9688 5.64517 20.9688C5.44356 20.9688 5.24194 22.1381 5.24194 22.5817C5.24202 22.7209 5.27814 22.8577 5.34678 22.9788V22.9788Z" fill="#21ABAB"/>
<path d="M5.64494 10.4844H3.22559V20.9682C3.22569 21.3624 3.37014 21.7429 3.63165 22.0378C3.89316 22.3328 4.25361 22.5218 4.64494 22.5691C4.50755 22.3268 4.43531 22.0532 4.43526 21.7747C4.43526 20.8836 4.83849 18.5489 5.24171 18.5489C5.64494 18.5489 7.66107 21.2868 7.66107 22.1779C7.66249 22.3091 7.64345 22.4397 7.60462 22.565L7.66107 22.5811H11.1046C10.9623 22.3362 10.8872 22.058 10.8869 21.7747C10.9935 21.0389 11.2408 20.3306 11.6155 19.6884C9.8378 18.8946 8.32799 17.6031 7.26848 15.9697C6.20896 14.3364 5.64507 12.4312 5.64494 10.4844V10.4844Z" fill="#BFBFBF"/>
<path d="M13.7097 20.3633C13.9253 20.8066 14.0617 21.2843 14.1129 21.7746C14.1126 22.0579 14.0375 22.3361 13.8952 22.581H17.3387L17.3952 22.5649C17.3564 22.4396 17.3373 22.309 17.3387 22.1778C17.4535 21.5951 17.6943 21.0446 18.0444 20.5649H15.7258C15.0488 20.5652 14.3733 20.4977 13.7097 20.3633V20.3633Z" fill="#BFBFBF"/>
<path d="M20.4434 20.5364C20.5124 20.9459 20.5529 21.3597 20.5644 21.7747C20.5644 22.0532 20.4921 22.3269 20.3547 22.5691C20.7461 22.5218 21.1065 22.3328 21.368 22.0379C21.6295 21.7429 21.774 21.3625 21.7741 20.9683V18.9521C21.7737 19.3305 21.6401 19.6965 21.3968 19.9862C21.1535 20.2759 20.816 20.4707 20.4434 20.5364V20.5364Z" fill="#BFBFBF"/>
<path d="M3.22559 8.87012H5.64494C5.64494 9.084 5.72991 9.28913 5.88115 9.44036C6.03238 9.5916 6.23751 9.67657 6.45139 9.67657H21.774V10.483H3.22559V8.87012Z" fill="#13969D"/>
<path d="M20.9678 13.7099C20.9678 13.4872 20.7873 13.3066 20.5646 13.3066C20.3419 13.3066 20.1614 13.4872 20.1614 13.7099V17.7421C20.1614 17.9648 20.3419 18.1453 20.5646 18.1453C20.7873 18.1453 20.9678 17.9648 20.9678 17.7421V13.7099Z" fill="white"/>
<path d="M20.9678 12.0966C20.9678 11.8739 20.7873 11.6934 20.5646 11.6934C20.3419 11.6934 20.1614 11.8739 20.1614 12.0966V12.4998C20.1614 12.7225 20.3419 12.903 20.5646 12.903C20.7873 12.903 20.9678 12.7225 20.9678 12.4998V12.0966Z" fill="white"/>
<path d="M9.27422 3.22581H8.46777C8.47863 3.04166 8.53833 2.86373 8.64073 2.71031C8.74313 2.55688 8.88455 2.43349 9.05043 2.35282C9.2081 2.24758 9.27422 2.19597 9.27422 2.15121C9.27422 2.10645 9.2081 2.05444 9.05043 1.9496C8.88432 1.8689 8.74275 1.74534 8.64033 1.59167C8.5379 1.43799 8.47834 1.25978 8.46777 1.0754C8.47849 0.891121 8.53812 0.713023 8.64053 0.559443C8.74294 0.405863 8.88443 0.282348 9.05043 0.201613C9.2081 0.0967742 9.27422 0.0455645 9.27422 0H10.0807C10.0698 0.184142 10.0101 0.362072 9.90772 0.515499C9.80532 0.668926 9.6639 0.792315 9.49802 0.872984C9.34035 0.978226 9.27422 1.02984 9.27422 1.0746C9.27422 1.11935 9.34035 1.17137 9.49802 1.27621C9.66413 1.35691 9.8057 1.48047 9.90812 1.63414C10.0105 1.78781 10.0701 1.96603 10.0807 2.1504C10.07 2.33469 10.0103 2.51278 9.90792 2.66636C9.80551 2.81994 9.66402 2.94346 9.49802 3.02419C9.34035 3.12903 9.27422 3.18024 9.27422 3.22581Z" fill="#C74841"/>
<path d="M12.5001 3.22581H11.6936C11.7045 3.04166 11.7642 2.86373 11.8666 2.71031C11.969 2.55688 12.1104 2.43349 12.2763 2.35282C12.4339 2.24758 12.5001 2.19597 12.5001 2.15121C12.5001 2.10645 12.4339 2.05444 12.2763 1.9496C12.1102 1.8689 11.9686 1.74534 11.8662 1.59167C11.7637 1.43799 11.7042 1.25978 11.6936 1.0754C11.7043 0.891121 11.764 0.713023 11.8664 0.559443C11.9688 0.405863 12.1103 0.282348 12.2763 0.201613C12.4339 0.0967742 12.5001 0.0455645 12.5001 0H13.3065C13.2956 0.184142 13.236 0.362072 13.1335 0.515499C13.0311 0.668926 12.8897 0.792315 12.7238 0.872984C12.5662 0.978226 12.5001 1.02984 12.5001 1.0746C12.5001 1.11935 12.5662 1.17137 12.7238 1.27621C12.89 1.35691 13.0315 1.48047 13.134 1.63414C13.2364 1.78781 13.2959 1.96603 13.3065 2.1504C13.2958 2.33469 13.2362 2.51278 13.1337 2.66636C13.0313 2.81994 12.8898 2.94346 12.7238 3.02419C12.5662 3.12903 12.5001 3.18024 12.5001 3.22581Z" fill="#C74841"/>
<path d="M15.7259 3.22581H14.9194C14.9303 3.04166 14.99 2.86373 15.0924 2.71031C15.1948 2.55688 15.3362 2.43349 15.5021 2.35282C15.6598 2.24758 15.7259 2.19597 15.7259 2.15121C15.7259 2.10645 15.6598 2.05444 15.5021 1.9496C15.336 1.8689 15.1944 1.74534 15.092 1.59167C14.9896 1.43799 14.93 1.25978 14.9194 1.0754C14.9302 0.891121 14.9898 0.713023 15.0922 0.559443C15.1946 0.405863 15.3361 0.282348 15.5021 0.201613C15.6598 0.0967742 15.7259 0.0455645 15.7259 0H16.5323C16.5215 0.184142 16.4618 0.362072 16.3594 0.515499C16.257 0.668926 16.1156 0.792315 15.9497 0.872984C15.792 0.978226 15.7259 1.02984 15.7259 1.0746C15.7259 1.11935 15.792 1.17137 15.9497 1.27621C16.1158 1.35691 16.2574 1.48047 16.3598 1.63414C16.4622 1.78781 16.5218 1.96603 16.5323 2.1504C16.5216 2.33469 16.462 2.51278 16.3596 2.66636C16.2572 2.81994 16.1157 2.94346 15.9497 3.02419C15.792 3.12903 15.7259 3.18024 15.7259 3.22581Z" fill="#C74841"/>
</svg>
