<svg width="20" height="18" viewBox="0 0 20 18" fill="none" xmlns="http://www.w3.org/2000/svg">
<path d="M18.1596 1.55613C17.666 1.06254 17.08 0.671051 16.435 0.404043C15.79 0.137034 15.0988 -0.000261748 14.4008 3.7462e-07C13.7027 0.000262497 13.0116 0.138078 12.3668 0.40557C11.722 0.673063 11.1363 1.06499 10.6431 1.55895L9.99927 2.21062L9.3608 1.56036L9.35665 1.55621C8.86329 1.06285 8.27759 0.671497 7.63299 0.404493C6.98839 0.137489 6.29751 6.32352e-05 5.5998 6.32352e-05C4.90208 6.32352e-05 4.2112 0.137489 3.5666 0.404493C2.922 0.671497 2.3363 1.06285 1.84294 1.55621L1.55613 1.84303C0.559755 2.8394 0 4.19078 0 5.59986C0 7.00894 0.559755 8.36032 1.55613 9.35669L9.12599 16.9265L9.98084 17.8221L10.0012 17.8017L10.0233 17.8238L10.8243 16.9788L18.4464 9.35657C19.4413 8.3594 20 7.00832 20 5.59974C20 4.19115 19.4413 2.84007 18.4464 1.8429L18.1596 1.55613ZM17.507 8.41737L10.0012 15.9233L2.49528 8.41737C1.748 7.67009 1.32819 6.65657 1.32819 5.59976C1.32819 4.54295 1.748 3.52942 2.49528 2.78214L2.78214 2.49532C3.52905 1.74841 4.54197 1.32863 5.59826 1.32823C6.65455 1.32783 7.66778 1.74686 8.41526 2.4932L9.9964 4.10316L11.5851 2.49532C11.9551 2.1253 12.3944 1.83178 12.8778 1.63153C13.3613 1.43128 13.8794 1.32821 14.4027 1.32821C14.926 1.32821 15.4442 1.43128 15.9276 1.63153C16.4111 1.83178 16.8503 2.1253 17.2203 2.49532L17.5072 2.7821C18.2533 3.52999 18.6723 4.54332 18.6723 5.59977C18.6723 6.65622 18.2532 7.66952 17.507 8.41737V8.41737Z" fill="#5D8BC1"/>
</svg>
