<svg width="20" height="22" viewBox="0 0 20 22" fill="none" xmlns="http://www.w3.org/2000/svg">
<path d="M16.6077 14.6401C16.0881 14.6402 15.5755 14.7598 15.1095 14.9897C14.6435 15.2196 14.2366 15.5536 13.9203 15.9658L6.60353 11.8131C6.84938 11.0998 6.84938 10.3247 6.60353 9.61135L13.9203 5.45865C14.431 6.12128 15.1688 6.57161 15.9915 6.723C16.8143 6.87438 17.6641 6.71613 18.3772 6.27869C19.0903 5.84124 19.6165 5.15552 19.8544 4.35346C20.0923 3.55141 20.0252 2.68969 19.666 1.93413C19.3068 1.17857 18.6809 0.58255 17.9086 0.260761C17.1364 -0.0610287 16.2724 -0.0858517 15.483 0.191068C14.6935 0.467989 14.0344 1.02709 13.6324 1.76077C13.2304 2.49446 13.1139 3.35091 13.3054 4.1653L5.86397 8.38879C5.39832 7.89343 4.79456 7.54941 4.13102 7.40136C3.46747 7.25331 2.77475 7.30805 2.14269 7.55849C1.51064 7.80892 0.968415 8.2435 0.586348 8.80585C0.204281 9.3682 0 10.0324 0 10.7122C0 11.3921 0.204281 12.0563 0.586348 12.6186C0.968415 13.181 1.51064 13.6155 2.14269 13.866C2.77475 14.1164 3.46747 14.1712 4.13102 14.0231C4.79456 13.8751 5.39832 13.531 5.86397 13.0357L13.3054 17.2592C13.145 17.9448 13.2019 18.6633 13.4683 19.3151C13.7346 19.9669 14.1972 20.5196 14.7919 20.8967C15.3865 21.2737 16.0838 21.4563 16.7869 21.4192C17.49 21.3821 18.1642 21.1271 18.7158 20.6896C19.2675 20.252 19.6693 19.6537 19.8656 18.9775C20.0618 18.3013 20.0428 17.5807 19.8111 16.9158C19.5794 16.251 19.1465 15.6747 18.5725 15.2669C17.9985 14.8591 17.3118 14.6401 16.6077 14.6401V14.6401ZM16.6077 1.42808C16.9961 1.42808 17.3758 1.54326 17.6988 1.75907C18.0218 1.97487 18.2735 2.2816 18.4222 2.64046C18.5708 2.99933 18.6097 3.39422 18.5339 3.77519C18.4581 4.15616 18.2711 4.5061 17.9964 4.78076C17.7218 5.05543 17.3718 5.24248 16.9908 5.31826C16.6099 5.39404 16.215 5.35514 15.8561 5.2065C15.4973 5.05785 15.1905 4.80612 14.9747 4.48315C14.7589 4.16018 14.6437 3.78047 14.6437 3.39204C14.6443 2.87134 14.8514 2.37214 15.2196 2.00395C15.5878 1.63576 16.087 1.42866 16.6077 1.42808V1.42808ZM3.39563 12.6762C3.0072 12.6762 2.62749 12.561 2.30452 12.3452C1.98155 12.1294 1.72982 11.8227 1.58117 11.4638C1.43253 11.1049 1.39363 10.7101 1.46941 10.3291C1.54519 9.94812 1.73224 9.59817 2.0069 9.32351C2.28157 9.04884 2.63151 8.8618 3.01248 8.78602C3.39345 8.71024 3.78834 8.74913 4.14721 8.89778C4.50607 9.04642 4.8128 9.29815 5.0286 9.62112C5.2444 9.94409 5.35959 10.3238 5.35959 10.7122C5.35901 11.2329 5.15191 11.7321 4.78372 12.1003C4.41553 12.4685 3.91633 12.6756 3.39563 12.6762V12.6762ZM16.6077 19.9964C16.2193 19.9964 15.8396 19.8812 15.5166 19.6654C15.1936 19.4496 14.9419 19.1429 14.7932 18.784C14.6446 18.4251 14.6057 18.0303 14.6815 17.6493C14.7573 17.2683 14.9443 16.9184 15.219 16.6437C15.4936 16.369 15.8436 16.182 16.2246 16.1062C16.6055 16.0304 17.0004 16.0693 17.3593 16.218C17.7181 16.3666 18.0249 16.6183 18.2407 16.9413C18.4565 17.2643 18.5717 17.644 18.5717 18.0324C18.5711 18.5531 18.364 19.0523 17.9958 19.4205C17.6276 19.7887 17.1284 19.9958 16.6077 19.9964V19.9964Z" fill="#5D8BC1"/>
</svg>
